<mxfile host="app.diagrams.net" modified="2024-04-02T10:41:43.127Z" agent="Mozilla/5.0 (Windows NT 10.0; Win64; x64; rv:124.0) Gecko/20100101 Firefox/124.0" etag="uCeOvSqqG26AY0eheQm-" version="24.2.1" type="github">
  <diagram id="C5RBs43oDa-KdzZeNtuy" name="Page-1">
    <mxGraphModel dx="1434" dy="782" grid="1" gridSize="10" guides="1" tooltips="1" connect="1" arrows="1" fold="1" page="1" pageScale="1" pageWidth="827" pageHeight="1169" math="0" shadow="0">
      <root>
        <mxCell id="WIyWlLk6GJQsqaUBKTNV-0" />
        <mxCell id="WIyWlLk6GJQsqaUBKTNV-1" parent="WIyWlLk6GJQsqaUBKTNV-0" />
        <mxCell id="k88lvfV29TgzRFzSoSJi-55" style="edgeStyle=orthogonalEdgeStyle;rounded=0;orthogonalLoop=1;jettySize=auto;html=1;exitX=0.5;exitY=1;exitDx=0;exitDy=0;entryX=0.5;entryY=0;entryDx=0;entryDy=0;" edge="1" parent="WIyWlLk6GJQsqaUBKTNV-1" source="k88lvfV29TgzRFzSoSJi-0" target="k88lvfV29TgzRFzSoSJi-22">
          <mxGeometry relative="1" as="geometry" />
        </mxCell>
        <mxCell id="k88lvfV29TgzRFzSoSJi-0" value="&lt;div align=&quot;center&quot;&gt;PREPROCESSING&lt;/div&gt;&lt;div align=&quot;center&quot;&gt;&lt;br&gt;&lt;/div&gt;&lt;div align=&quot;center&quot;&gt;&lt;br&gt;&lt;/div&gt;&lt;div align=&quot;center&quot;&gt;&lt;br&gt;&lt;/div&gt;&lt;div align=&quot;center&quot;&gt;&lt;br&gt;&lt;/div&gt;&lt;div&gt;&lt;br&gt;&lt;/div&gt;&lt;div&gt;&lt;br&gt;&lt;/div&gt;&lt;div&gt;&lt;br&gt;&lt;/div&gt;&lt;div&gt;&lt;br&gt;&lt;/div&gt;" style="rounded=1;whiteSpace=wrap;html=1;" vertex="1" parent="WIyWlLk6GJQsqaUBKTNV-1">
          <mxGeometry x="80" y="80" width="680" height="140" as="geometry" />
        </mxCell>
        <mxCell id="k88lvfV29TgzRFzSoSJi-4" style="edgeStyle=orthogonalEdgeStyle;rounded=0;orthogonalLoop=1;jettySize=auto;html=1;exitX=1;exitY=0.5;exitDx=0;exitDy=0;entryX=0;entryY=0.5;entryDx=0;entryDy=0;" edge="1" parent="WIyWlLk6GJQsqaUBKTNV-1" source="k88lvfV29TgzRFzSoSJi-1" target="k88lvfV29TgzRFzSoSJi-2">
          <mxGeometry relative="1" as="geometry" />
        </mxCell>
        <mxCell id="k88lvfV29TgzRFzSoSJi-1" value="&lt;div&gt;RAW dataset&lt;/div&gt;&lt;div&gt;&lt;br&gt;&lt;/div&gt;&lt;div&gt;P&lt;sub&gt;N&lt;/sub&gt;,C&lt;sub&gt;N&lt;/sub&gt;&lt;br&gt;&lt;/div&gt;" style="rounded=1;whiteSpace=wrap;html=1;" vertex="1" parent="WIyWlLk6GJQsqaUBKTNV-1">
          <mxGeometry x="100" y="110" width="90" height="90" as="geometry" />
        </mxCell>
        <mxCell id="k88lvfV29TgzRFzSoSJi-6" style="edgeStyle=orthogonalEdgeStyle;rounded=0;orthogonalLoop=1;jettySize=auto;html=1;exitX=1;exitY=0.5;exitDx=0;exitDy=0;entryX=0;entryY=0.5;entryDx=0;entryDy=0;" edge="1" parent="WIyWlLk6GJQsqaUBKTNV-1" source="k88lvfV29TgzRFzSoSJi-2" target="k88lvfV29TgzRFzSoSJi-5">
          <mxGeometry relative="1" as="geometry" />
        </mxCell>
        <mxCell id="k88lvfV29TgzRFzSoSJi-2" value="&lt;div&gt;Rolling selection&lt;/div&gt;&lt;div&gt;&lt;br&gt;&lt;/div&gt;&lt;div&gt;P&lt;sub&gt;R&lt;/sub&gt;,C&lt;sub&gt;R&lt;/sub&gt;&lt;br&gt;&lt;/div&gt;" style="rounded=1;whiteSpace=wrap;html=1;" vertex="1" parent="WIyWlLk6GJQsqaUBKTNV-1">
          <mxGeometry x="210" y="110" width="90" height="90" as="geometry" />
        </mxCell>
        <mxCell id="k88lvfV29TgzRFzSoSJi-5" value="&lt;div&gt;Tokenization and feature extraction&lt;br&gt;&lt;/div&gt;&lt;div&gt;&lt;br&gt;&lt;/div&gt;&lt;div&gt;&lt;br&gt;&lt;/div&gt;&lt;div&gt;&lt;br&gt;&lt;/div&gt;&lt;div&gt;&lt;br&gt;&lt;/div&gt;" style="rounded=1;whiteSpace=wrap;html=1;" vertex="1" parent="WIyWlLk6GJQsqaUBKTNV-1">
          <mxGeometry x="323.5" y="110" width="416.5" height="90" as="geometry" />
        </mxCell>
        <mxCell id="k88lvfV29TgzRFzSoSJi-11" value="lemmatization" style="rounded=1;whiteSpace=wrap;html=1;" vertex="1" parent="WIyWlLk6GJQsqaUBKTNV-1">
          <mxGeometry x="340" y="140" width="90" height="20" as="geometry" />
        </mxCell>
        <mxCell id="k88lvfV29TgzRFzSoSJi-12" value="pos tags" style="rounded=1;whiteSpace=wrap;html=1;" vertex="1" parent="WIyWlLk6GJQsqaUBKTNV-1">
          <mxGeometry x="440" y="140" width="80" height="20" as="geometry" />
        </mxCell>
        <mxCell id="k88lvfV29TgzRFzSoSJi-13" value="dependencies" style="rounded=1;whiteSpace=wrap;html=1;" vertex="1" parent="WIyWlLk6GJQsqaUBKTNV-1">
          <mxGeometry x="638.5" y="170" width="90" height="20" as="geometry" />
        </mxCell>
        <mxCell id="k88lvfV29TgzRFzSoSJi-16" value="word length distribution" style="rounded=1;whiteSpace=wrap;html=1;" vertex="1" parent="WIyWlLk6GJQsqaUBKTNV-1">
          <mxGeometry x="340" y="170" width="150" height="20" as="geometry" />
        </mxCell>
        <mxCell id="k88lvfV29TgzRFzSoSJi-19" value="vocabulary richness" style="rounded=1;whiteSpace=wrap;html=1;" vertex="1" parent="WIyWlLk6GJQsqaUBKTNV-1">
          <mxGeometry x="500" y="170" width="130" height="20" as="geometry" />
        </mxCell>
        <mxCell id="k88lvfV29TgzRFzSoSJi-20" value="word embeddings" style="rounded=1;whiteSpace=wrap;html=1;" vertex="1" parent="WIyWlLk6GJQsqaUBKTNV-1">
          <mxGeometry x="530" y="140" width="200" height="20" as="geometry" />
        </mxCell>
        <mxCell id="k88lvfV29TgzRFzSoSJi-22" value="&lt;div&gt;PREPROCESSING - feature extraction and feature post processing&lt;br&gt;&lt;/div&gt;&lt;div&gt;&lt;br&gt;&lt;/div&gt;&lt;div&gt;&lt;br&gt;&lt;/div&gt;&lt;div&gt;&lt;br&gt;&lt;/div&gt;&lt;div&gt;&lt;br&gt;&lt;/div&gt;&lt;div&gt;&lt;br&gt;&lt;/div&gt;&lt;div&gt;&lt;br&gt;&lt;/div&gt;&lt;div&gt;&lt;br&gt;&lt;/div&gt;&lt;div&gt;&lt;br&gt;&lt;/div&gt;&lt;div&gt;&lt;br&gt;&lt;/div&gt;&lt;div&gt;&lt;br&gt;&lt;/div&gt;&lt;div&gt;&lt;br&gt;&lt;/div&gt;&lt;div&gt;&lt;br&gt;&lt;/div&gt;&lt;div&gt;&lt;br&gt;&lt;/div&gt;&lt;div&gt;&lt;br&gt;&lt;/div&gt;&lt;div&gt;&lt;br&gt;&lt;/div&gt;&lt;div&gt;&lt;br&gt;&lt;/div&gt;&lt;div&gt;&lt;br&gt;&lt;/div&gt;&lt;div&gt;&lt;br&gt;&lt;/div&gt;" style="rounded=1;whiteSpace=wrap;html=1;" vertex="1" parent="WIyWlLk6GJQsqaUBKTNV-1">
          <mxGeometry x="75" y="240" width="685" height="310" as="geometry" />
        </mxCell>
        <mxCell id="k88lvfV29TgzRFzSoSJi-43" style="edgeStyle=orthogonalEdgeStyle;rounded=0;orthogonalLoop=1;jettySize=auto;html=1;exitX=0.5;exitY=1;exitDx=0;exitDy=0;entryX=0.5;entryY=0;entryDx=0;entryDy=0;" edge="1" parent="WIyWlLk6GJQsqaUBKTNV-1" source="k88lvfV29TgzRFzSoSJi-24" target="k88lvfV29TgzRFzSoSJi-27">
          <mxGeometry relative="1" as="geometry" />
        </mxCell>
        <mxCell id="k88lvfV29TgzRFzSoSJi-47" style="edgeStyle=orthogonalEdgeStyle;rounded=0;orthogonalLoop=1;jettySize=auto;html=1;exitX=0.5;exitY=1;exitDx=0;exitDy=0;entryX=0.5;entryY=0;entryDx=0;entryDy=0;" edge="1" parent="WIyWlLk6GJQsqaUBKTNV-1" source="k88lvfV29TgzRFzSoSJi-24" target="k88lvfV29TgzRFzSoSJi-26">
          <mxGeometry relative="1" as="geometry" />
        </mxCell>
        <mxCell id="k88lvfV29TgzRFzSoSJi-49" style="edgeStyle=orthogonalEdgeStyle;rounded=0;orthogonalLoop=1;jettySize=auto;html=1;entryX=0.5;entryY=0;entryDx=0;entryDy=0;" edge="1" parent="WIyWlLk6GJQsqaUBKTNV-1" source="k88lvfV29TgzRFzSoSJi-24" target="k88lvfV29TgzRFzSoSJi-31">
          <mxGeometry relative="1" as="geometry" />
        </mxCell>
        <mxCell id="k88lvfV29TgzRFzSoSJi-24" value="lemmatization" style="rounded=1;whiteSpace=wrap;html=1;" vertex="1" parent="WIyWlLk6GJQsqaUBKTNV-1">
          <mxGeometry x="100" y="290" width="90" height="20" as="geometry" />
        </mxCell>
        <mxCell id="k88lvfV29TgzRFzSoSJi-26" value="BoW" style="rounded=1;whiteSpace=wrap;html=1;" vertex="1" parent="WIyWlLk6GJQsqaUBKTNV-1">
          <mxGeometry x="200" y="410" width="60" height="20" as="geometry" />
        </mxCell>
        <mxCell id="k88lvfV29TgzRFzSoSJi-27" value="TFIDF" style="rounded=1;whiteSpace=wrap;html=1;" vertex="1" parent="WIyWlLk6GJQsqaUBKTNV-1">
          <mxGeometry x="120" y="410" width="70" height="20" as="geometry" />
        </mxCell>
        <mxCell id="k88lvfV29TgzRFzSoSJi-44" style="edgeStyle=orthogonalEdgeStyle;rounded=0;orthogonalLoop=1;jettySize=auto;html=1;exitX=0.5;exitY=1;exitDx=0;exitDy=0;entryX=0.5;entryY=0;entryDx=0;entryDy=0;" edge="1" parent="WIyWlLk6GJQsqaUBKTNV-1" source="k88lvfV29TgzRFzSoSJi-31" target="k88lvfV29TgzRFzSoSJi-26">
          <mxGeometry relative="1" as="geometry">
            <Array as="points">
              <mxPoint x="260" y="360" />
              <mxPoint x="230" y="360" />
            </Array>
          </mxGeometry>
        </mxCell>
        <mxCell id="k88lvfV29TgzRFzSoSJi-46" style="edgeStyle=orthogonalEdgeStyle;rounded=0;orthogonalLoop=1;jettySize=auto;html=1;exitX=0.5;exitY=1;exitDx=0;exitDy=0;entryX=0.5;entryY=0;entryDx=0;entryDy=0;" edge="1" parent="WIyWlLk6GJQsqaUBKTNV-1" source="k88lvfV29TgzRFzSoSJi-31" target="k88lvfV29TgzRFzSoSJi-27">
          <mxGeometry relative="1" as="geometry">
            <Array as="points">
              <mxPoint x="260" y="360" />
              <mxPoint x="155" y="360" />
            </Array>
          </mxGeometry>
        </mxCell>
        <mxCell id="k88lvfV29TgzRFzSoSJi-31" value="special characters" style="rounded=1;whiteSpace=wrap;html=1;" vertex="1" parent="WIyWlLk6GJQsqaUBKTNV-1">
          <mxGeometry x="200" y="320" width="120" height="20" as="geometry" />
        </mxCell>
        <mxCell id="k88lvfV29TgzRFzSoSJi-50" style="edgeStyle=orthogonalEdgeStyle;rounded=0;orthogonalLoop=1;jettySize=auto;html=1;exitX=0.5;exitY=1;exitDx=0;exitDy=0;entryX=0.5;entryY=0;entryDx=0;entryDy=0;" edge="1" parent="WIyWlLk6GJQsqaUBKTNV-1" source="k88lvfV29TgzRFzSoSJi-32" target="k88lvfV29TgzRFzSoSJi-39">
          <mxGeometry relative="1" as="geometry" />
        </mxCell>
        <mxCell id="k88lvfV29TgzRFzSoSJi-32" value="dependencies" style="rounded=1;whiteSpace=wrap;html=1;" vertex="1" parent="WIyWlLk6GJQsqaUBKTNV-1">
          <mxGeometry x="330" y="290" width="90" height="20" as="geometry" />
        </mxCell>
        <mxCell id="k88lvfV29TgzRFzSoSJi-33" value="WLD" style="rounded=1;whiteSpace=wrap;html=1;" vertex="1" parent="WIyWlLk6GJQsqaUBKTNV-1">
          <mxGeometry x="520" y="290" width="80" height="20" as="geometry" />
        </mxCell>
        <mxCell id="k88lvfV29TgzRFzSoSJi-34" value="vocabulary richness" style="rounded=1;whiteSpace=wrap;html=1;" vertex="1" parent="WIyWlLk6GJQsqaUBKTNV-1">
          <mxGeometry x="608.5" y="290" width="130" height="20" as="geometry" />
        </mxCell>
        <mxCell id="k88lvfV29TgzRFzSoSJi-52" style="edgeStyle=orthogonalEdgeStyle;rounded=0;orthogonalLoop=1;jettySize=auto;html=1;exitX=0.5;exitY=1;exitDx=0;exitDy=0;entryX=0.5;entryY=0;entryDx=0;entryDy=0;" edge="1" parent="WIyWlLk6GJQsqaUBKTNV-1" source="k88lvfV29TgzRFzSoSJi-37" target="k88lvfV29TgzRFzSoSJi-39">
          <mxGeometry relative="1" as="geometry" />
        </mxCell>
        <mxCell id="k88lvfV29TgzRFzSoSJi-37" value="pos tags" style="rounded=1;whiteSpace=wrap;html=1;" vertex="1" parent="WIyWlLk6GJQsqaUBKTNV-1">
          <mxGeometry x="430" y="290" width="80" height="20" as="geometry" />
        </mxCell>
        <mxCell id="k88lvfV29TgzRFzSoSJi-39" value="Counter" style="rounded=1;whiteSpace=wrap;html=1;" vertex="1" parent="WIyWlLk6GJQsqaUBKTNV-1">
          <mxGeometry x="330" y="410" width="90" height="20" as="geometry" />
        </mxCell>
      </root>
    </mxGraphModel>
  </diagram>
</mxfile>
